<mxfile host="app.diagrams.net" modified="2023-12-14T08:49:06.307Z" agent="Mozilla/5.0 (Windows NT 10.0; Win64; x64) AppleWebKit/537.36 (KHTML, like Gecko) Chrome/120.0.0.0 Safari/537.36" etag="t46KY3HqI2dEZeuYMqOJ" version="22.1.8" type="device">
  <diagram name="Page-1" id="WC3z1jcUyI-2D93L1_Cb">
    <mxGraphModel dx="564" dy="1338" grid="1" gridSize="10" guides="1" tooltips="1" connect="1" arrows="1" fold="1" page="1" pageScale="1" pageWidth="850" pageHeight="1100" math="0" shadow="0">
      <root>
        <mxCell id="0" />
        <mxCell id="1" parent="0" />
        <mxCell id="7PUeAql6gU7AQ2nw7Csy-5" style="edgeStyle=orthogonalEdgeStyle;rounded=0;orthogonalLoop=1;jettySize=auto;html=1;exitX=0.5;exitY=1;exitDx=0;exitDy=0;entryX=0.5;entryY=0;entryDx=0;entryDy=0;" edge="1" parent="1" source="7PUeAql6gU7AQ2nw7Csy-1" target="7PUeAql6gU7AQ2nw7Csy-4">
          <mxGeometry relative="1" as="geometry" />
        </mxCell>
        <mxCell id="7PUeAql6gU7AQ2nw7Csy-1" value="SampleDropOff" style="shape=process;whiteSpace=wrap;html=1;backgroundOutline=1;" vertex="1" parent="1">
          <mxGeometry x="210" y="110" width="120" height="30" as="geometry" />
        </mxCell>
        <mxCell id="7PUeAql6gU7AQ2nw7Csy-7" style="edgeStyle=orthogonalEdgeStyle;rounded=0;orthogonalLoop=1;jettySize=auto;html=1;exitX=0.5;exitY=1;exitDx=0;exitDy=0;entryX=0.5;entryY=0;entryDx=0;entryDy=0;" edge="1" parent="1" source="7PUeAql6gU7AQ2nw7Csy-4" target="7PUeAql6gU7AQ2nw7Csy-6">
          <mxGeometry relative="1" as="geometry" />
        </mxCell>
        <mxCell id="7PUeAql6gU7AQ2nw7Csy-4" value="Make sound to intake 1 sample has been drop off" style="rounded=0;whiteSpace=wrap;html=1;" vertex="1" parent="1">
          <mxGeometry x="210" y="160" width="120" height="80" as="geometry" />
        </mxCell>
        <mxCell id="7PUeAql6gU7AQ2nw7Csy-8" style="edgeStyle=orthogonalEdgeStyle;rounded=0;orthogonalLoop=1;jettySize=auto;html=1;exitX=0;exitY=0.5;exitDx=0;exitDy=0;entryX=0;entryY=0.5;entryDx=0;entryDy=0;" edge="1" parent="1" source="7PUeAql6gU7AQ2nw7Csy-6" target="7PUeAql6gU7AQ2nw7Csy-4">
          <mxGeometry relative="1" as="geometry" />
        </mxCell>
        <mxCell id="7PUeAql6gU7AQ2nw7Csy-11" style="edgeStyle=orthogonalEdgeStyle;rounded=0;orthogonalLoop=1;jettySize=auto;html=1;exitX=0.5;exitY=1;exitDx=0;exitDy=0;entryX=0.5;entryY=0;entryDx=0;entryDy=0;" edge="1" parent="1" source="7PUeAql6gU7AQ2nw7Csy-6" target="7PUeAql6gU7AQ2nw7Csy-13">
          <mxGeometry relative="1" as="geometry">
            <mxPoint x="270" y="380" as="targetPoint" />
          </mxGeometry>
        </mxCell>
        <mxCell id="7PUeAql6gU7AQ2nw7Csy-6" value="Has it dropped off &lt;br&gt;the amount of times there &lt;br&gt;is samples" style="rhombus;whiteSpace=wrap;html=1;" vertex="1" parent="1">
          <mxGeometry x="167.5" y="260" width="205" height="80" as="geometry" />
        </mxCell>
        <mxCell id="7PUeAql6gU7AQ2nw7Csy-9" value="Yes" style="text;html=1;strokeColor=none;fillColor=none;align=center;verticalAlign=middle;whiteSpace=wrap;rounded=0;" vertex="1" parent="1">
          <mxGeometry x="130" y="240" width="60" height="30" as="geometry" />
        </mxCell>
        <mxCell id="7PUeAql6gU7AQ2nw7Csy-10" value="Return" style="ellipse;whiteSpace=wrap;html=1;aspect=fixed;" vertex="1" parent="1">
          <mxGeometry x="245" y="440" width="50" height="50" as="geometry" />
        </mxCell>
        <mxCell id="7PUeAql6gU7AQ2nw7Csy-12" value="No" style="text;html=1;strokeColor=none;fillColor=none;align=center;verticalAlign=middle;whiteSpace=wrap;rounded=0;" vertex="1" parent="1">
          <mxGeometry x="260" y="340" width="60" height="30" as="geometry" />
        </mxCell>
        <mxCell id="7PUeAql6gU7AQ2nw7Csy-14" style="edgeStyle=orthogonalEdgeStyle;rounded=0;orthogonalLoop=1;jettySize=auto;html=1;exitX=0.5;exitY=1;exitDx=0;exitDy=0;entryX=0.5;entryY=0;entryDx=0;entryDy=0;" edge="1" parent="1" source="7PUeAql6gU7AQ2nw7Csy-13" target="7PUeAql6gU7AQ2nw7Csy-10">
          <mxGeometry relative="1" as="geometry" />
        </mxCell>
        <mxCell id="7PUeAql6gU7AQ2nw7Csy-13" value="set stage to 2&lt;br&gt;set sample to 0" style="rounded=0;whiteSpace=wrap;html=1;" vertex="1" parent="1">
          <mxGeometry x="210" y="370" width="120" height="50" as="geometry" />
        </mxCell>
      </root>
    </mxGraphModel>
  </diagram>
</mxfile>
